<svg version="1" xmlns="http://www.w3.org/2000/svg" width="400" height="400" viewBox="0 0 300.000000 300.000000"><path d="M29.5 13.2c-4 1-10.3 5-11.8 7.4-.4.7-1.4 1.9-2.2 2.7-.7.8-2 4.1-2.8 7.3-1.3 5-1.5 23.4-1.3 121.4.1 115.1.1 115.5 2.2 120 3.7 8 8.9 12.1 17.4 13.9 4.1.9 34.9 1.1 120.5.9 63.3-.2 115.7-.6 116.5-.9.8-.3 2.6-.9 4-1.4 6.5-2.1 12-8.8 13.8-17 1.4-5.7 1.2-232.7-.2-237.9-1.9-7.7-9-14.3-17.6-16.4-6-1.5-232.6-1.4-238.5 0zm236.2 17.2c1.4.4 2.6 2 3.1 3.9.4 1.8.7 54.4.7 117.1l-.1 113.8-2.4 2.2-2.5 2.1H33l-2.2-2.2-2.1-2.2-.1-115.5c0-123.1-.2-117.7 4.6-119.5 2.5-.9 229.8-.7 232.5.3z"/><path d="M145.3 62.1c-1.7.3-5.2 1.8-7.7 3.3-7.8 4.5-12 12.1-11.8 21.1.1 9.4 5.1 17.3 13.7 21.8 4.9 2.6 15.2 2.8 20.6.4 4.5-2 10.1-7.5 12.3-12.2 8.4-17.7-7.9-38.4-27.1-34.4zM141.4 126.4c-12.1 3.9-19.3 16.5-16.5 29 4.4 19.7 29.4 25.7 42.6 10.3 8.2-9.6 7.8-23.6-.8-32.9-6-6.4-16.8-9.2-25.3-6.4zM205.8 126.7c-13.8 5.2-20 21-13.4 34.1 7.3 14.3 25.9 17.8 38.1 7 8.1-7.2 10.4-19.3 5.5-29.1-5.5-11.1-18.7-16.3-30.2-12zM76.7 190.8c-16.8 5.4-22.1 28.4-9.2 40.6 15.8 15 41.5 4.1 41.5-17.6 0-16.7-16.2-28.2-32.3-23zM205.9 192.4c-13.8 4.9-20.1 20.6-13.6 33.8 10.1 20.4 40.4 16.9 45.7-5.3 2-8.3-1.1-18.2-7.6-23.8-6.5-5.6-16.5-7.6-24.5-4.7z"/></svg>